<svg width="67" height="67" viewBox="0 0 67 67" fill="none" xmlns="http://www.w3.org/2000/svg">
<g id="&#240;&#159;&#166;&#134; icon &#34;work alt bag&#34;">
<g id="Group">
<path id="Vector" d="M3 24.0135C3 20.6977 5.68802 18.0096 9.00387 18.0096H57.0348C60.3508 18.0096 63.0387 20.6977 63.0387 24.0135V57.0348C63.0387 60.3507 60.3508 63.0387 57.0348 63.0387H9.00387C5.68802 63.0387 3 60.3507 3 57.0348V24.0135Z" stroke="white" stroke-width="6" stroke-linecap="round" stroke-linejoin="round"/>
<path id="Vector_2" d="M45.0271 18.0097V9.00387C45.0271 5.68802 42.3391 3 39.0232 3H27.0155C23.6996 3 21.0116 5.68802 21.0116 9.00387V18.0097" stroke="white" stroke-width="6" stroke-linecap="round" stroke-linejoin="round"/>
<path id="Vector_3" d="M63.0387 33.0193L34.1967 38.7878C33.4195 38.943 32.6192 38.943 31.842 38.7878L3 33.0193" stroke="white" stroke-width="6" stroke-linecap="round" stroke-linejoin="round"/>
</g>
</g>
</svg>
